<?xml version="1.0" encoding="UTF-8" standalone="no"?>
<svg
   xmlns:dc="http://purl.org/dc/elements/1.1/"
   xmlns:cc="http://creativecommons.org/ns#"
   xmlns:rdf="http://www.w3.org/1999/02/22-rdf-syntax-ns#"
   xmlns:svg="http://www.w3.org/2000/svg"
   xmlns="http://www.w3.org/2000/svg"
   xmlns:sodipodi="http://sodipodi.sourceforge.net/DTD/sodipodi-0.dtd"
   xmlns:inkscape="http://www.inkscape.org/namespaces/inkscape"
   width="105.46891mm"
   height="105.46891mm"
   viewBox="0 0 105.46891 105.46891"
   version="1.1"
   id="svg8"
   inkscape:version="1.0 (4035a4fb49, 2020-05-01)"
   sodipodi:docname="dmx-notebook-logo.svg">
  <defs
     id="defs2">
    <inkscape:path-effect
       fuse_tolerance="0"
       hide_knot="false"
       vertical_pattern="false"
       prop_units="false"
       tang_offset="0"
       normal_offset="0"
       spacing="0"
       scale_y_rel="false"
       prop_scale="1"
       copytype="single_stretched"
       pattern="M 0,0 H 1"
       lpeversion="1"
       is_visible="true"
       id="path-effect991"
       effect="skeletal" />
    <inkscape:path-effect
       hide_knot="false"
       vertical="false"
       scale_y_rel="false"
       prop_scale="1"
       bendpath="m 202.59288,11.086602 h 55.74731"
       lpeversion="1"
       is_visible="true"
       id="path-effect930"
       effect="bend_path" />
    <inkscape:path-effect
       bendpath-nodetypes="cc"
       hide_knot="false"
       vertical="false"
       scale_y_rel="false"
       prop_scale="1"
       bendpath="M 182.6976,81.308018 C 194.08752,63.490267 223.55003,62.4101 236.47143,79.04353"
       lpeversion="1"
       is_visible="true"
       id="path-effect910"
       effect="bend_path" />
    <inkscape:path-effect
       fuse_tolerance="0"
       hide_knot="false"
       vertical_pattern="false"
       prop_units="false"
       tang_offset="0"
       normal_offset="0"
       spacing="0"
       scale_y_rel="false"
       prop_scale="0.95"
       copytype="single"
       pattern="m 236.40298,78.955797 c -0.47512,0.372258 -1.18776,0.252318 -1.60007,-0.228476 -0.41257,-0.481085 -0.4225,-1.203607 0.0171,-1.615908 0.43946,-0.412209 1.17831,-0.345078 1.64055,0.192755 0.4625,0.538115 0.4177,1.279288 -0.0575,1.651629 z m -7.02206,-6.376147 c -0.65459,1.007996 -2.06594,1.253963 -3.12915,0.675911 -1.06425,-0.578612 -1.62519,-1.897646 -1.13345,-2.994742 0.49156,-1.096711 1.92392,-1.544626 3.21875,-0.840594 1.29579,0.70456 1.69867,2.151075 1.04385,3.159425 z M 204.9613,67.638531 c 0.30281,2.026793 -1.26633,4.133937 -3.22435,4.66844 -1.95802,0.534502 -4.36547,-0.474766 -5.14773,-2.365863 -0.82106,-1.984851 0.39495,-4.439631 3.08015,-5.177942 2.67748,-0.736187 4.97432,0.749453 5.29193,2.875365 z m 13.42091,0.42214 c -0.34598,1.592963 -2.01124,2.586826 -3.61369,2.389171 -1.60507,-0.197978 -2.97983,-1.568965 -2.92305,-3.201051 0.0567,-1.63111 1.63755,-2.931876 3.65156,-2.681614 2.01645,0.250565 3.23137,1.899574 2.88518,3.493494 z m -27.84524,5.172661 c 1.6074,2.308312 0.99127,5.56627 -0.67487,7.273895 -1.64295,1.683862 -4.86368,2.389759 -7.22424,0.894682 -1.15387,-0.730807 -1.93473,-1.951869 -2.00135,-3.516898 -0.0664,-1.559526 0.60093,-3.241343 1.85742,-4.537981 1.25667,-1.296812 2.90337,-2.00402 4.45423,-1.984748 1.55401,0.01931 2.80892,0.751088 3.58881,1.87105 z"
       lpeversion="1"
       is_visible="true"
       id="path-effect878"
       effect="skeletal" />
    <inkscape:path-effect
       hide_knot="false"
       vertical="false"
       scale_y_rel="false"
       prop_scale="1"
       bendpath="m 195.85753,11.086602 h 55.74733"
       lpeversion="1"
       is_visible="true"
       id="path-effect876"
       effect="bend_path" />
  </defs>
  <sodipodi:namedview
     fit-margin-bottom="0"
     fit-margin-right="0"
     fit-margin-left="0"
     fit-margin-top="0"
     inkscape:snap-object-midpoints="false"
     showguides="false"
     id="base"
     pagecolor="#ffffff"
     bordercolor="#666666"
     borderopacity="1.0"
     inkscape:pageopacity="0.0"
     inkscape:pageshadow="2"
     inkscape:zoom="1.4142136"
     inkscape:cx="229.501"
     inkscape:cy="187.0087"
     inkscape:document-units="mm"
     inkscape:current-layer="layer1"
     inkscape:document-rotation="0"
     showgrid="false"
     showborder="true"
     inkscape:window-width="1680"
     inkscape:window-height="1050"
     inkscape:window-x="1920"
     inkscape:window-y="0"
     inkscape:window-maximized="1" />
  <metadata
     id="metadata5">
    <rdf:RDF>
      <cc:Work
         rdf:about="">
        <dc:format>image/svg+xml</dc:format>
        <dc:type
           rdf:resource="http://purl.org/dc/dcmitype/StillImage" />
        <dc:title />
      </cc:Work>
    </rdf:RDF>
  </metadata>
  <g
     transform="translate(-331.11786,-57.609478)"
     inkscape:label="Layer 1"
     inkscape:groupmode="layer"
     id="layer1">
    <g
       transform="translate(0,4.6833019)"
       id="g864">
      <g
         style="font-style:normal;font-variant:normal;font-weight:bold;font-stretch:normal;font-size:48.1378px;line-height:1.25;font-family:Bitter;-inkscape-font-specification:'Bitter, Bold';font-variant-ligatures:normal;font-variant-caps:normal;font-variant-numeric:normal;font-variant-east-asian:normal;stroke-width:0.264583"
         id="text852"
         aria-label="dmx">
        <path
           id="path1448"
           style="font-style:normal;font-variant:normal;font-weight:bold;font-stretch:normal;font-size:48.1378px;font-family:Bitter;-inkscape-font-specification:'Bitter, Bold';font-variant-ligatures:normal;font-variant-caps:normal;font-variant-numeric:normal;font-variant-east-asian:normal;fill:#f8f8ff;fill-opacity:1;stroke-width:0.264583"
           d="m 359.61506,112.0867 -10.10894,0.33696 -0.43324,-2.5513 q -3.03268,3.03268 -7.26881,3.03268 -4.95819,0 -7.41322,-3.36965 -2.45502,-3.36964 -2.45502,-9.48314 0,-6.835571 3.41778,-10.445906 3.46592,-3.658473 10.20521,-3.658473 1.58855,0 3.12896,0.481378 v -6.1135 l -3.85102,-0.962756 v -3.851024 l 10.92728,-0.385102 v 32.156053 l 3.85102,0.96275 z m -10.92728,-7.55764 V 92.205785 q -1.20345,-0.722067 -3.75475,-0.722067 -5.53585,0 -5.53585,8.183426 0,7.605776 4.62123,7.605776 1.34786,0 2.50317,-0.67393 1.20344,-0.72207 1.68482,-1.396 z" />
        <path
           id="path1450"
           style="font-style:normal;font-variant:normal;font-weight:bold;font-stretch:normal;font-size:48.1378px;font-family:Bitter;-inkscape-font-specification:'Bitter, Bold';font-variant-ligatures:normal;font-variant-caps:normal;font-variant-numeric:normal;font-variant-east-asian:normal;fill:#f8f8ff;fill-opacity:1;stroke-width:0.264583"
           d="m 403.42037,94.612675 v 12.756515 l 3.27337,1.20345 v 3.85102 h -12.90093 v -3.85102 l 2.5513,-1.20345 V 96.056809 q 0,-2.021788 -0.67393,-2.984544 -0.62579,-0.962756 -2.11806,-0.962756 -1.396,0 -2.74386,0.625792 -1.29972,0.625791 -1.92551,1.251583 l -0.67393,0.625791 v 12.756515 l 2.50317,1.20345 v 3.85102 h -12.13073 v -3.85102 l 2.50317,-1.20345 V 96.056809 q 0,-2.069925 -0.62579,-2.984544 -0.6258,-0.962756 -2.11807,-0.962756 -1.39599,0 -2.74385,0.625792 -1.34786,0.625791 -2.02179,1.251583 l -0.62579,0.625791 v 12.756515 l 2.5513,1.20345 v 3.85102 h -13.33417 v -3.85102 l 3.70661,-1.20345 V 91.579994 l -3.65847,-0.914619 v -3.851023 l 9.91639,-0.385103 0.33696,3.417784 q 0.48138,-0.43324 1.29972,-1.059032 0.81834,-0.673929 3.03268,-1.73296 2.21434,-1.10717 4.09172,-1.10717 4.76564,0 6.54674,4.139851 0.72206,-0.722067 1.68482,-1.492272 0.96276,-0.770205 3.03268,-1.684823 2.06993,-0.962756 3.99544,-0.962756 3.61033,0 5.43957,2.262477 1.82924,2.262476 1.82924,6.402327 z" />
        <path
           id="path1452"
           style="font-style:normal;font-variant:normal;font-weight:bold;font-stretch:normal;font-size:48.1378px;font-family:Bitter;-inkscape-font-specification:'Bitter, Bold';font-variant-ligatures:normal;font-variant-caps:normal;font-variant-numeric:normal;font-variant-east-asian:normal;fill:#f8f8ff;fill-opacity:1;stroke-width:0.264583"
           d="m 427.2485,86.669938 8.03901,-0.240689 v 4.091713 l -2.98454,0.625791 -5.53585,8.279702 5.43957,8.183425 3.5622,0.96276 v 3.85102 h -13.09348 v -3.85102 l 1.49227,-0.52952 -2.5513,-4.23613 -5.19888,8.61667 h -8.18343 v -3.85102 l 3.61034,-0.96276 5.29515,-7.942736 -5.82467,-8.520391 -2.59944,-0.625791 v -3.851024 l 12.46769,-0.240689 v 4.091713 l -1.44414,0.288827 2.50317,4.236126 z" />
      </g>
      <g
         style="font-style:normal;font-variant:normal;font-weight:normal;font-stretch:normal;font-size:23.412px;line-height:1.25;font-family:Bitter;-inkscape-font-specification:'Bitter, Normal';font-variant-ligatures:normal;font-variant-caps:normal;font-variant-numeric:normal;font-variant-east-asian:normal;fill:#f8f8ff;fill-opacity:1;stroke-width:0.264584"
         id="text854"
         aria-label="notebook">
        <path
           id="path1455"
           style="font-style:normal;font-variant:normal;font-weight:normal;font-stretch:normal;font-size:23.412px;font-family:Bitter;-inkscape-font-specification:'Bitter, Normal';font-variant-ligatures:normal;font-variant-caps:normal;font-variant-numeric:normal;font-variant-east-asian:normal;fill:#f8f8ff;fill-opacity:1;stroke-width:0.264584"
           d="m 335.97488,123.12442 0.2107,1.66225 q 0.23412,-0.1873 0.65554,-0.51507 0.42142,-0.32776 0.9833,-0.63212 0.5853,-0.30436 1.26425,-0.51506 0.70236,-0.23412 1.45155,-0.23412 1.89637,0 2.80944,1.12377 0.93648,1.10037 0.93648,3.09039 v 6.55536 l 1.7559,0.5853 v 1.28766 h -5.61888 v -1.28766 l 1.52178,-0.5853 v -6.32124 q 0,-1.26425 -0.49166,-1.84955 -0.49165,-0.60871 -1.49836,-0.60871 -0.49166,0 -0.98331,0.14047 -0.46824,0.11706 -0.88965,0.32777 -0.39801,0.2107 -0.72578,0.46824 -0.30435,0.23412 -0.51506,0.46824 l -0.398,0.46824 v 6.90654 l 1.52178,0.5853 v 1.28766 h -5.853 v -1.28766 l 1.99002,-0.5853 v -8.66244 l -1.99002,-0.46824 v -1.28766 z" />
        <path
           id="path1457"
           style="font-style:normal;font-variant:normal;font-weight:normal;font-stretch:normal;font-size:23.412px;font-family:Bitter;-inkscape-font-specification:'Bitter, Normal';font-variant-ligatures:normal;font-variant-caps:normal;font-variant-numeric:normal;font-variant-east-asian:normal;fill:#f8f8ff;fill-opacity:1;stroke-width:0.264584"
           d="m 347.68085,129.51589 q 0,-1.49837 0.42142,-2.71579 0.44483,-1.24084 1.24083,-2.10708 0.79601,-0.86624 1.87296,-1.33448 1.10037,-0.46824 2.41144,-0.46824 2.62214,0 4.07369,1.66225 1.45154,1.66225 1.45154,4.61216 0,1.45155 -0.42141,2.66897 -0.42142,1.19401 -1.19402,2.08367 -0.74918,0.86624 -1.84954,1.35789 -1.07696,0.49166 -2.41144,0.49166 -2.66897,0 -4.14392,-1.59202 -1.45155,-1.59202 -1.45155,-4.65899 z m 5.853,-4.75263 q -3.39474,0 -3.39474,4.56534 0,4.56534 3.27768,4.56534 1.70908,0 2.48167,-1.1706 0.79601,-1.1706 0.79601,-3.5118 0,-4.44828 -3.16062,-4.44828 z" />
        <path
           id="path1459"
           style="font-style:normal;font-variant:normal;font-weight:normal;font-stretch:normal;font-size:23.412px;font-family:Bitter;-inkscape-font-specification:'Bitter, Normal';font-variant-ligatures:normal;font-variant-caps:normal;font-variant-numeric:normal;font-variant-east-asian:normal;fill:#f8f8ff;fill-opacity:1;stroke-width:0.264584"
           d="m 365.23985,119.82332 v 3.41816 h 3.39474 v 1.7559 h -3.39474 v 7.51525 q 0,1.42813 1.1706,1.42813 0.74918,0 1.82613,-0.5853 l 0.63213,1.24084 q -1.59202,1.1706 -3.27768,1.1706 -1.19402,0 -1.9432,-0.7726 -0.74918,-0.79601 -0.74918,-2.62214 v -7.37478 h -2.3412 v -1.52178 l 2.3412,-0.23412 v -2.94992 z" />
        <path
           id="path1461"
           style="font-style:normal;font-variant:normal;font-weight:normal;font-stretch:normal;font-size:23.412px;font-family:Bitter;-inkscape-font-specification:'Bitter, Normal';font-variant-ligatures:normal;font-variant-caps:normal;font-variant-numeric:normal;font-variant-east-asian:normal;fill:#f8f8ff;fill-opacity:1;stroke-width:0.264584"
           d="m 380.80879,129.63295 -8.07714,0.0468 q 0,1.91978 0.91307,3.06697 0.93648,1.14719 2.48167,1.14719 0.51507,0 1.03013,-0.0936 0.51507,-0.0936 0.95989,-0.23412 0.46824,-0.14047 0.84284,-0.30436 0.37459,-0.18729 0.63212,-0.35118 l 0.46824,-0.30435 0.81942,1.21742 q -0.79601,0.63212 -1.47496,1.00672 -0.65553,0.35118 -1.5686,0.65553 -0.88966,0.28095 -1.9432,0.28095 -2.76261,0 -4.19074,-1.66226 -1.42814,-1.68566 -1.42814,-4.58875 0,-1.45154 0.42142,-2.66897 0.42142,-1.21742 1.1706,-2.08366 0.7726,-0.88966 1.82614,-1.38131 1.05354,-0.49165 2.31778,-0.49165 4.91652,0 4.91652,5.50182 z m -7.98349,-1.70907 h 5.61888 q 0,-1.42814 -0.60871,-2.31779 -0.60871,-0.88966 -1.96661,-0.88966 -1.33448,0 -2.13049,0.91307 -0.79601,0.88966 -0.91307,2.29438 z" />
        <path
           id="path1463"
           style="font-style:normal;font-variant:normal;font-weight:normal;font-stretch:normal;font-size:23.412px;font-family:Bitter;-inkscape-font-specification:'Bitter, Normal';font-variant-ligatures:normal;font-variant-caps:normal;font-variant-numeric:normal;font-variant-east-asian:normal;fill:#f8f8ff;fill-opacity:1;stroke-width:0.264584"
           d="m 385.9594,117.50554 v 6.74265 q 1.70908,-1.35789 3.5118,-1.35789 2.48168,0 3.6991,1.61542 1.21742,1.61543 1.21742,4.58876 0,1.45154 -0.42141,2.69238 -0.42142,1.21742 -1.24084,2.10708 -0.81942,0.88965 -2.01343,1.3813 -1.19401,0.49166 -2.76262,0.49166 -1.19401,-0.0234 -2.1539,-0.11706 -0.93648,-0.0702 -1.66225,-0.30436 l -0.51507,-0.16388 v -15.8031 l -1.87296,-0.46824 v -1.28766 z m 0,16.15428 q 0.56189,0.23412 2.43485,0.23412 0.93648,0 1.59202,-0.35118 0.67895,-0.35118 1.10036,-0.9599 0.44483,-0.63212 0.63213,-1.47495 0.2107,-0.86625 0.2107,-1.87296 0,-2.10708 -0.72577,-3.27768 -0.70236,-1.19401 -2.20073,-1.19401 -1.1706,0 -1.89637,0.46824 -0.70236,0.44482 -1.14719,1.05354 z" />
        <path
           id="path1465"
           style="font-style:normal;font-variant:normal;font-weight:normal;font-stretch:normal;font-size:23.412px;font-family:Bitter;-inkscape-font-specification:'Bitter, Normal';font-variant-ligatures:normal;font-variant-caps:normal;font-variant-numeric:normal;font-variant-east-asian:normal;fill:#f8f8ff;fill-opacity:1;stroke-width:0.264584"
           d="m 396.37773,129.51589 q 0,-1.49837 0.42141,-2.71579 0.44483,-1.24084 1.24084,-2.10708 0.79601,-0.86624 1.87296,-1.33448 1.10036,-0.46824 2.41143,-0.46824 2.62215,0 4.07369,1.66225 1.45155,1.66225 1.45155,4.61216 0,1.45155 -0.42142,2.66897 -0.42142,1.19401 -1.19401,2.08367 -0.74919,0.86624 -1.84955,1.35789 -1.07695,0.49166 -2.41144,0.49166 -2.66896,0 -4.14392,-1.59202 -1.45154,-1.59202 -1.45154,-4.65899 z m 5.853,-4.75263 q -3.39474,0 -3.39474,4.56534 0,4.56534 3.27768,4.56534 1.70907,0 2.48167,-1.1706 0.79601,-1.1706 0.79601,-3.5118 0,-4.44828 -3.16062,-4.44828 z" />
        <path
           id="path1467"
           style="font-style:normal;font-variant:normal;font-weight:normal;font-stretch:normal;font-size:23.412px;font-family:Bitter;-inkscape-font-specification:'Bitter, Normal';font-variant-ligatures:normal;font-variant-caps:normal;font-variant-numeric:normal;font-variant-east-asian:normal;fill:#f8f8ff;fill-opacity:1;stroke-width:0.264584"
           d="m 409.72256,129.51589 q 0,-1.49837 0.42142,-2.71579 0.44482,-1.24084 1.24083,-2.10708 0.79601,-0.86624 1.87296,-1.33448 1.10037,-0.46824 2.41144,-0.46824 2.62214,0 4.07369,1.66225 1.45154,1.66225 1.45154,4.61216 0,1.45155 -0.42142,2.66897 -0.42141,1.19401 -1.19401,2.08367 -0.74918,0.86624 -1.84955,1.35789 -1.07695,0.49166 -2.41143,0.49166 -2.66897,0 -4.14393,-1.59202 -1.45154,-1.59202 -1.45154,-4.65899 z m 5.853,-4.75263 q -3.39474,0 -3.39474,4.56534 0,4.56534 3.27768,4.56534 1.70908,0 2.48167,-1.1706 0.79601,-1.1706 0.79601,-3.5118 0,-4.44828 -3.16062,-4.44828 z" />
        <path
           id="path1469"
           style="font-style:normal;font-variant:normal;font-weight:normal;font-stretch:normal;font-size:23.412px;font-family:Bitter;-inkscape-font-specification:'Bitter, Normal';font-variant-ligatures:normal;font-variant-caps:normal;font-variant-numeric:normal;font-variant-east-asian:normal;fill:#f8f8ff;fill-opacity:1;stroke-width:0.264584"
           d="m 427.04743,117.50554 v 10.30128 h 1.99002 l 1.7559,-2.94992 -1.05354,-0.32776 v -1.28766 l 5.15064,-0.11706 v 1.40472 l -1.66225,0.28094 h -0.0234 l -2.41144,3.58204 3.02015,5.2677 h 0.0234 l 1.7559,0.5853 v 1.28766 h -3.16062 l -3.34791,-5.97006 h -2.03685 v 4.0971 l 1.52178,0.5853 v 1.28766 h -5.853 v -1.28766 l 1.99002,-0.5853 V 119.3785 l -1.99002,-0.46824 v -1.28766 z" />
      </g>
    </g>
  </g>
</svg>
